<svg width="537" height="380" viewBox="0 0 537 380" fill="none" xmlns="http://www.w3.org/2000/svg">
<path d="M105.778 112.537C105.983 112.219 106.248 112.021 106.566 111.941L117.529 109.207C117.846 109.127 118.111 109.194 118.323 109.406C118.535 109.617 118.621 109.922 118.581 110.313L115.9 188.113C115.86 188.504 115.741 188.855 115.536 189.172C115.331 189.49 115.066 189.689 114.741 189.768L103.778 192.502C103.454 192.582 103.196 192.516 102.984 192.304C102.772 192.092 102.686 191.787 102.726 191.397L103.858 159.964C103.831 159.593 103.692 159.434 103.434 159.501L94.1063 161.824C93.7223 161.924 93.5436 162.155 93.57 162.533L92.5373 193.939C92.4976 194.33 92.3585 194.687 92.1202 195.011C91.8819 195.336 91.6038 195.541 91.2795 195.621L80.4091 198.328C80.0847 198.408 79.8199 198.341 79.6146 198.13C79.4028 197.918 79.3167 197.613 79.3565 197.223L82.0376 119.429C82.0774 119.038 82.1965 118.687 82.4017 118.369C82.607 118.052 82.8718 117.853 83.1896 117.773L94.0599 115.066C94.7617 114.887 95.1457 115.251 95.2119 116.145L94.0732 147.465C94.0997 147.842 94.2387 147.995 94.4969 147.929L103.825 145.605C104.083 145.539 104.262 145.307 104.361 144.903L105.4 113.609C105.44 113.219 105.559 112.868 105.764 112.55L105.778 112.537Z" fill="black"/>
<path d="M159.401 112.173C159.196 112.491 158.931 112.689 158.614 112.769L139.091 117.634C138.766 117.714 138.621 117.939 138.647 118.316L137.965 136.515C137.992 136.893 138.131 137.045 138.389 136.979L149.643 134.172C149.961 134.092 150.226 134.158 150.438 134.37C150.65 134.589 150.736 134.887 150.696 135.277L150.305 146.446C150.266 146.836 150.146 147.187 149.941 147.505C149.736 147.823 149.471 148.021 149.153 148.101L137.998 150.881C137.614 150.98 137.436 151.212 137.462 151.583L136.879 169.868C136.774 170.272 136.919 170.431 137.303 170.331L156.727 165.485C157.045 165.406 157.329 165.472 157.574 165.671C157.819 165.876 157.919 166.174 157.879 166.564L157.488 177.733C157.448 178.123 157.329 178.474 157.124 178.792C156.919 179.11 156.654 179.308 156.336 179.388L124.314 187.372C123.99 187.451 123.732 187.385 123.52 187.173C123.308 186.961 123.222 186.657 123.262 186.266L125.943 108.472C125.983 108.081 126.102 107.731 126.307 107.413C126.512 107.095 126.777 106.896 127.095 106.817L159.117 98.833C159.435 98.7536 159.699 98.8198 159.911 99.0316C160.123 99.2435 160.209 99.548 160.169 99.9386L159.779 111.107C159.739 111.498 159.62 111.848 159.415 112.166L159.401 112.173Z" fill="black"/>
<path d="M188.345 170.159L187.206 159.487C187.259 159.322 187.219 159.196 187.08 159.117C186.941 159.037 186.809 159.011 186.683 159.044L174.853 161.997C174.469 162.089 174.29 162.328 174.317 162.698L172.377 174.138C172.245 175.012 171.821 175.535 171.119 175.707L160.249 178.415C159.481 178.607 159.19 178.183 159.375 177.15L175.714 95.9467C175.846 95.0794 176.27 94.5498 176.971 94.3777L189.57 91.2331C190.212 91.0742 190.622 91.392 190.808 92.1798L201.685 166.598L201.711 166.935C201.764 167.683 201.433 168.147 200.731 168.319L189.477 171.126C188.769 171.305 188.391 170.98 188.332 170.153L188.345 170.159ZM176.985 149.034L185.353 146.949C185.67 146.869 185.823 146.644 185.796 146.267L182.499 115.94C182.42 115.735 182.314 115.642 182.188 115.675C182.056 115.708 181.97 115.84 181.923 116.085L176.66 148.544C176.554 148.948 176.66 149.114 176.991 149.034H176.985Z" fill="black"/>
<path d="M212.773 164.069L202.088 89.6045L202.075 89.3794C202.016 88.5585 202.373 88.0487 203.141 87.8568L215.163 84.8578C215.865 84.679 216.249 85.0034 216.309 85.831L221.009 134.86C221.029 135.158 221.122 135.291 221.28 135.251C221.439 135.211 221.539 135.032 221.585 134.721L229.582 82.5275C229.715 81.6602 230.138 81.1306 230.84 80.9585L242.478 78.0588C243.246 77.8669 243.538 78.2905 243.352 79.3233L227.206 160.474C227.073 161.348 226.649 161.871 225.948 162.043L213.925 165.042C213.217 165.221 212.84 164.896 212.78 164.069H212.773Z" fill="black"/>
<path d="M256.129 154.006C255.917 153.794 255.831 153.49 255.871 153.099L256.91 123.176C256.91 123.103 256.91 123.003 256.937 122.884C256.963 122.765 256.937 122.639 256.864 122.507L245.405 78.9261L245.378 78.5885C245.352 78.2177 245.431 77.8933 245.603 77.6219C245.782 77.3505 246.027 77.1717 246.351 77.0923L257.89 74.2125C258.592 74.0338 259.002 74.3184 259.122 75.0467L263.974 101.104C263.987 101.329 264.08 101.422 264.239 101.382C264.398 101.342 264.504 101.203 264.55 100.965L271.237 72.0278C271.442 71.2202 271.892 70.7237 272.6 70.5449L284.047 67.6916C284.431 67.5989 284.715 67.6585 284.894 67.8836C285.073 68.1087 285.086 68.4993 284.927 69.0686L270.23 119.17C270.118 119.429 270.071 119.667 270.085 119.892L269.045 149.815C269.006 150.206 268.886 150.557 268.681 150.875C268.476 151.192 268.211 151.391 267.893 151.47L256.93 154.204C256.606 154.284 256.341 154.218 256.136 154.006H256.129Z" fill="black"/>
<path d="M296.85 143.109L286.933 68.453L286.92 68.2279C286.86 67.407 287.218 66.8972 287.986 66.7052L299.333 63.8784C300.034 63.6997 300.418 64.0241 300.478 64.8516L304.357 104.957C304.444 105.241 304.549 105.367 304.675 105.334C304.801 105.301 304.887 105.129 304.933 104.811L311.441 62.1174C311.574 61.2502 311.997 60.7206 312.699 60.5485L322.126 58.1983C322.828 58.0195 323.212 58.3439 323.271 59.1714L327.343 99.2303C327.363 99.5282 327.455 99.6606 327.614 99.6209C327.773 99.5812 327.872 99.4025 327.919 99.0913L334.042 56.4903C334.175 55.623 334.599 55.1 335.3 54.9213L346.363 52.1606C347.131 51.9687 347.455 52.3857 347.329 53.4052L332.818 134.152C332.685 135.026 332.262 135.549 331.56 135.721L321.464 138.237C320.756 138.415 320.378 138.091 320.319 137.263L316.261 96.0593C316.241 95.7613 316.161 95.6289 316.036 95.662C315.91 95.6951 315.791 95.8739 315.678 96.2049L309.25 140.024C309.117 140.898 308.694 141.421 307.992 141.593L298.088 144.062C297.32 144.254 296.903 143.937 296.85 143.116V143.109Z" fill="black"/>
<path d="M384.144 56.1393C383.939 56.4571 383.674 56.6557 383.356 56.7351L363.833 61.601C363.509 61.6804 363.363 61.9055 363.39 62.2828L362.708 80.4818C362.735 80.8591 362.874 81.0114 363.132 80.9452L374.386 78.1382C374.704 78.0588 374.975 78.125 375.18 78.3368C375.392 78.5553 375.478 78.8532 375.439 79.2438L375.048 90.4121C375.008 90.8027 374.889 91.1536 374.684 91.4713C374.479 91.7891 374.214 91.9877 373.896 92.0672L362.741 94.8476C362.357 94.947 362.178 95.1787 362.205 95.556L361.622 113.841C361.516 114.245 361.662 114.404 362.046 114.304L381.47 109.458C381.787 109.379 382.072 109.445 382.317 109.65C382.562 109.856 382.661 110.154 382.622 110.544L382.231 121.712C382.191 122.103 382.072 122.454 381.867 122.772C381.662 123.089 381.397 123.288 381.079 123.368L349.057 131.351C348.733 131.431 348.468 131.365 348.263 131.153C348.051 130.941 347.965 130.636 348.005 130.246L350.686 52.4452C350.725 52.0546 350.845 51.7037 351.05 51.386C351.255 51.0682 351.52 50.8696 351.838 50.7902L383.866 42.8062C384.184 42.7267 384.449 42.7929 384.661 43.0048C384.872 43.2166 384.959 43.5212 384.919 43.9118L384.528 55.08C384.489 55.4706 384.369 55.8215 384.164 56.1393H384.144Z" fill="black"/>
<path d="M386.739 121.554C386.528 121.342 386.441 121.037 386.481 120.647L389.162 42.8459C389.202 42.4553 389.321 42.1044 389.527 41.7866C389.732 41.4689 389.997 41.2703 390.314 41.1908L401.178 38.4832C401.88 38.3044 402.264 38.6685 402.33 39.5623L399.649 117.363C399.609 117.754 399.47 118.111 399.232 118.435C398.993 118.76 398.715 118.965 398.391 119.044L387.521 121.752C387.196 121.832 386.931 121.765 386.726 121.554H386.739Z" fill="black"/>
<path d="M411.804 111.709C408.626 109.233 406.852 105.228 406.461 99.6936C406.415 99.0183 406.401 97.926 406.428 96.3901L407.719 57.503C407.911 50.9159 409.778 45.2225 413.326 40.4163C416.875 35.6166 421.462 32.5117 427.109 31.1016C432.174 29.8372 436.312 30.4595 439.516 32.9685C442.727 35.4776 444.521 39.496 444.911 45.0305C444.958 45.7058 444.971 46.8048 444.944 48.334L444.858 52.6901C444.819 53.0807 444.68 53.4382 444.441 53.7626C444.203 54.087 443.925 54.2922 443.6 54.3717L432.737 57.0793C432.412 57.1588 432.147 57.0926 431.936 56.8807C431.724 56.6689 431.638 56.3643 431.677 55.9737L431.843 51.3661C431.883 51.0549 431.883 50.5981 431.843 49.9957C431.711 48.1288 431.174 46.7386 430.228 45.8316C429.288 44.9246 428.076 44.6598 426.6 45.0239C424.998 45.4211 423.667 46.4605 422.608 48.1288C421.548 49.8037 420.973 51.7898 420.873 54.0936L419.503 93.2257C419.47 95.5163 419.913 97.2507 420.847 98.4225C421.774 99.6009 423.045 99.9849 424.647 99.5877C426.315 99.1706 427.679 98.1312 428.731 96.4563C429.791 94.788 430.367 92.7953 430.466 90.4915L430.797 81.2828C430.77 80.9121 430.631 80.7532 430.373 80.8194L426.236 81.8521C425.918 81.9316 425.653 81.8654 425.441 81.6535C425.229 81.4417 425.143 81.1372 425.183 80.7466L425.54 70.5051C425.514 70.1344 425.62 69.7835 425.858 69.4591C426.097 69.1347 426.375 68.9295 426.699 68.8501L443.243 64.7257C443.945 64.5469 444.329 64.911 444.395 65.8048L443.634 87.102C443.442 93.6957 441.561 99.3891 437.98 104.202C434.405 109.015 429.824 112.113 424.243 113.503C419.112 114.781 414.961 114.185 411.79 111.703L411.804 111.709Z" fill="black"/>
<path d="M475.265 20.4101C475.47 20.0923 475.735 19.8937 476.053 19.8143L487.016 17.0801C487.334 17.0007 487.598 17.0669 487.81 17.2787C488.022 17.4906 488.108 17.7951 488.068 18.1857L485.387 95.9798C485.347 96.3704 485.228 96.7212 485.023 97.039C484.818 97.3568 484.553 97.5554 484.229 97.6348L473.266 100.369C472.948 100.448 472.683 100.382 472.471 100.17C472.259 99.9585 472.173 99.654 472.213 99.2634L473.345 67.8306C473.319 67.4599 473.179 67.301 472.921 67.3672L463.593 69.6909C463.209 69.7836 463.031 70.0219 463.057 70.3927L462.024 101.799C461.985 102.19 461.846 102.547 461.607 102.871C461.369 103.196 461.091 103.401 460.767 103.48L449.903 106.188C449.578 106.268 449.32 106.201 449.108 105.99C448.897 105.778 448.811 105.473 448.85 105.083L451.531 27.2818C451.571 26.8913 451.69 26.5404 451.896 26.2226C452.101 25.9048 452.366 25.7062 452.683 25.6268L463.554 22.9191C464.255 22.7404 464.639 23.1045 464.706 23.9982L463.567 55.3184C463.593 55.6958 463.732 55.8481 463.991 55.7819L473.319 53.4582C473.577 53.392 473.755 53.1602 473.855 52.7564L474.894 21.4627C474.927 21.0721 475.053 20.7212 475.258 20.4035L475.265 20.4101Z" fill="black"/>
<path d="M530.087 6.74597C530.299 6.95782 530.385 7.26235 530.345 7.65294L529.954 18.8212C529.915 19.2118 529.795 19.5627 529.59 19.8805C529.385 20.1982 529.12 20.3968 528.802 20.4763L517.071 23.4024C516.939 23.4355 516.833 23.5216 516.747 23.654C516.661 23.793 516.621 23.932 516.628 24.0843L514.397 88.7637C514.357 89.1543 514.238 89.5052 514.033 89.823C513.828 90.1407 513.563 90.3394 513.245 90.4188L502.282 93.1529C501.964 93.2324 501.699 93.1662 501.487 92.9543C501.276 92.7425 501.19 92.438 501.229 92.0474L503.46 27.3679C503.56 26.9641 503.421 26.8052 503.037 26.9045L491.882 29.685C491.173 29.8637 490.796 29.4996 490.73 28.6059L491.12 17.4376C491.16 17.047 491.279 16.6961 491.484 16.3784C491.69 16.0606 491.954 15.862 492.272 15.7826L529.299 6.55398C529.617 6.47454 529.882 6.54074 530.093 6.75259L530.087 6.74597Z" fill="black"/>
<path d="M41.2704 226.504L52.1407 223.796C52.4585 223.717 52.7299 223.783 52.9352 223.995C53.147 224.207 53.2331 224.511 53.1933 224.902L50.5122 302.696C50.4724 303.086 50.3533 303.437 50.148 303.755C49.9428 304.073 49.678 304.271 49.3602 304.351L38.3972 307.085C38.0728 307.164 37.808 307.098 37.6028 306.886C37.3909 306.675 37.3048 306.37 37.3446 305.979L39.1122 254.309C39.1519 253.998 39.1122 253.852 38.9864 253.885C38.854 253.918 38.7348 254.064 38.6289 254.315L30.7641 272.018C30.4198 272.713 30.155 273.084 29.963 273.13C29.8372 273.163 29.5923 272.918 29.2282 272.402L22.5683 258.314C22.4226 258.122 22.2902 258.043 22.1578 258.076C22.0254 258.109 21.9791 258.274 21.9989 258.572L20.2313 310.243C20.1916 310.633 20.0724 310.984 19.8672 311.302C19.662 311.62 19.3972 311.818 19.0794 311.898L8.11634 314.632C7.79195 314.712 7.52714 314.645 7.32192 314.433C7.11007 314.222 7.02401 313.917 7.06373 313.526L9.74491 235.732C9.78464 235.342 9.9038 234.991 10.109 234.673C10.3143 234.355 10.5791 234.157 10.8968 234.077L21.6679 231.39C21.9261 231.323 22.1843 231.337 22.4491 231.423C22.7139 231.509 22.8926 231.694 22.9787 231.979L30.6714 248.205C30.8237 248.476 31.009 248.423 31.2474 248.059L39.9066 227.762C40.1184 227.1 40.5818 226.683 41.2836 226.504H41.2704Z" fill="black"/>
<path d="M62.6205 296.883C59.4097 294.301 57.6024 290.131 57.1986 284.371C57.1456 283.623 57.1257 282.412 57.139 280.737L58.377 243.915C58.6153 237.01 60.5087 231.059 64.077 226.067C67.6386 221.069 72.2728 217.865 77.986 216.441C83.1763 215.144 87.4 215.786 90.6439 218.361C93.8878 220.936 95.7149 225.1 96.1188 230.86C96.1717 231.608 96.1916 232.82 96.1784 234.494L94.9338 271.316C94.6954 278.221 92.7822 284.173 89.1874 289.177C85.5926 294.182 80.9386 297.393 75.232 298.816C70.0418 300.114 65.8379 299.465 62.6205 296.883ZM79.9456 281.61C81.0313 279.856 81.6139 277.751 81.7066 275.295L83.0439 237.083C83.0836 236.772 83.0902 236.315 83.0439 235.713C82.9048 233.693 82.3421 232.197 81.3623 231.224C80.3825 230.251 79.1247 229.953 77.5822 230.344C75.8477 230.774 74.4442 231.866 73.3585 233.621C72.2728 235.375 71.6902 237.48 71.5975 239.936L70.2602 278.148C70.2139 278.466 70.2139 278.923 70.2602 279.519C70.3993 281.538 70.962 283.034 71.9418 284.007C72.9216 284.98 74.1529 285.285 75.6292 284.914C77.4233 284.464 78.8599 283.365 79.9456 281.61Z" fill="black"/>
<path d="M105.519 286.185C102.309 283.603 100.501 279.432 100.097 273.673C100.045 272.925 100.025 271.713 100.038 270.038L101.276 233.217C101.514 226.312 103.408 220.36 106.976 215.369C110.538 210.37 115.172 207.166 120.878 205.743C126.069 204.445 130.292 205.088 133.536 207.663C136.78 210.238 138.607 214.402 139.011 220.162C139.064 220.91 139.084 222.121 139.071 223.803L137.833 260.624C137.594 267.529 135.681 273.481 132.086 278.486C128.492 283.491 123.838 286.701 118.131 288.125C112.941 289.422 108.737 288.774 105.519 286.192V286.185ZM122.845 270.912C123.93 269.158 124.513 267.053 124.606 264.597L125.943 226.385C125.983 226.074 125.989 225.617 125.943 225.014C125.804 222.995 125.241 221.499 124.261 220.526C123.281 219.553 122.024 219.255 120.481 219.645C118.747 220.076 117.343 221.168 116.257 222.922C115.172 224.677 114.583 226.782 114.496 229.238L113.159 267.45C113.113 267.768 113.113 268.224 113.159 268.82C113.298 270.839 113.861 272.336 114.841 273.309C115.82 274.282 117.045 274.586 118.522 274.216C120.316 273.766 121.752 272.667 122.838 270.912H122.845Z" fill="black"/>
<path d="M143.453 280.492C143.241 280.28 143.155 279.975 143.195 279.585L145.876 201.791C145.916 201.4 146.035 201.049 146.24 200.731C146.446 200.414 146.71 200.215 147.028 200.136L163.857 195.938C169.047 194.641 173.251 195.29 176.468 197.871C179.679 200.453 181.486 204.551 181.877 210.159C181.93 210.907 181.943 212.045 181.923 213.568L180.619 249.489C180.374 256.242 178.481 262.081 174.946 266.993C171.41 271.905 166.783 275.076 161.083 276.5L144.254 280.697C143.93 280.776 143.672 280.71 143.46 280.498L143.453 280.492ZM157.25 263.643L161.473 262.478C163.135 261.988 164.532 260.763 165.671 258.81C166.809 256.857 167.438 254.487 167.571 251.72L168.729 217.884C168.762 217.421 168.749 216.779 168.69 215.951C168.531 213.707 167.975 212.039 167.021 210.946C166.061 209.854 164.784 209.51 163.181 209.907L159.044 210.94C158.719 211.019 158.574 211.244 158.6 211.622L156.826 263.18C156.72 263.59 156.866 263.743 157.25 263.643Z" fill="black"/>
<path d="M186.107 243.041C185.895 242.829 185.809 242.525 185.849 242.134L186.24 230.966C186.279 230.575 186.399 230.224 186.604 229.907C186.809 229.589 187.074 229.39 187.392 229.311L211.529 223.293C212.237 223.114 212.621 223.478 212.681 224.372L212.284 235.54C212.244 235.931 212.125 236.282 211.919 236.6C211.714 236.917 211.449 237.116 211.132 237.196L186.895 243.24C186.571 243.319 186.313 243.253 186.101 243.041H186.107Z" fill="black"/>
<path d="M216.911 262.18C216.699 261.968 216.613 261.664 216.653 261.273L219.334 183.479C219.374 183.089 219.493 182.738 219.698 182.42C219.903 182.102 220.168 181.903 220.486 181.824L231.356 179.116C232.058 178.944 232.442 179.302 232.508 180.195L230.277 244.875C230.171 245.279 230.317 245.438 230.701 245.338L250.224 240.472C250.926 240.294 251.31 240.658 251.376 241.552L250.985 252.72C250.946 253.11 250.826 253.461 250.621 253.779C250.416 254.097 250.151 254.295 249.833 254.375L217.712 262.385C217.388 262.465 217.123 262.399 216.918 262.187L216.911 262.18Z" fill="black"/>
<path d="M253.839 252.971C253.627 252.76 253.541 252.455 253.58 252.065L256.262 174.27C256.301 173.88 256.421 173.529 256.626 173.211C256.831 172.893 257.096 172.695 257.414 172.615L268.284 169.908C268.986 169.729 269.37 170.093 269.436 170.987L266.755 248.781C266.715 249.172 266.576 249.529 266.338 249.853C266.099 250.178 265.821 250.383 265.497 250.462L254.626 253.17C254.302 253.25 254.044 253.183 253.832 252.971H253.839Z" fill="black"/>
<path d="M310.097 172.88C309.892 173.198 309.627 173.397 309.309 173.476L289.886 178.322C289.561 178.401 289.416 178.627 289.442 179.004L288.76 197.203C288.787 197.58 288.926 197.732 289.184 197.666L300.339 194.886C300.657 194.806 300.928 194.873 301.133 195.084C301.345 195.303 301.431 195.601 301.392 195.991L301.001 207.16C300.961 207.55 300.842 207.901 300.637 208.219C300.432 208.537 300.167 208.735 299.849 208.815L288.787 211.575C288.403 211.668 288.224 211.906 288.251 212.277L287.218 243.683C287.178 244.074 287.039 244.431 286.801 244.756C286.562 245.08 286.284 245.285 285.96 245.365L275.096 248.073C274.772 248.152 274.507 248.086 274.302 247.874C274.09 247.662 274.004 247.358 274.044 246.967L276.725 169.173C276.764 168.782 276.884 168.431 277.089 168.114C277.294 167.796 277.559 167.597 277.877 167.518L309.806 159.56C310.124 159.481 310.395 159.547 310.6 159.759C310.812 159.971 310.898 160.275 310.859 160.666L310.468 171.834C310.428 172.225 310.309 172.576 310.104 172.893L310.097 172.88Z" fill="black"/>
<path d="M351.44 149.564C351.652 149.776 351.738 150.08 351.699 150.471L351.308 161.639C351.268 162.03 351.149 162.381 350.944 162.698C350.739 163.016 350.474 163.215 350.156 163.294L338.425 166.22C338.293 166.253 338.187 166.333 338.101 166.472C338.015 166.611 337.975 166.75 337.982 166.902L335.75 231.582C335.711 231.972 335.592 232.323 335.386 232.641C335.181 232.959 334.916 233.157 334.599 233.237L323.636 235.971C323.311 236.05 323.053 235.984 322.841 235.772C322.629 235.56 322.543 235.256 322.583 234.865L324.814 170.186C324.913 169.782 324.774 169.623 324.39 169.722L313.235 172.503C312.527 172.682 312.143 172.317 312.083 171.424L312.474 160.255C312.514 159.865 312.633 159.514 312.838 159.196C313.043 158.878 313.308 158.68 313.626 158.6L350.653 149.372C350.97 149.292 351.242 149.359 351.447 149.57L351.44 149.564Z" fill="black"/>
<path d="M388.216 153.404C388.01 153.721 387.746 153.92 387.428 153.999L367.905 158.865C367.58 158.945 367.435 159.17 367.461 159.547L366.779 177.746C366.806 178.123 366.945 178.276 367.203 178.21L378.457 175.403C378.775 175.323 379.04 175.389 379.252 175.601C379.464 175.813 379.55 176.118 379.51 176.508L379.119 187.676C379.08 188.067 378.961 188.418 378.755 188.736C378.55 189.053 378.285 189.252 377.968 189.331L366.813 192.112C366.429 192.205 366.25 192.443 366.276 192.814L365.694 211.099C365.588 211.509 365.733 211.661 366.117 211.562L385.541 206.716C385.859 206.637 386.144 206.696 386.388 206.901C386.633 207.107 386.733 207.405 386.693 207.795L386.302 218.964C386.263 219.354 386.144 219.705 385.938 220.023C385.733 220.341 385.468 220.539 385.151 220.619L353.129 228.603C352.804 228.682 352.546 228.616 352.334 228.404C352.122 228.192 352.036 227.888 352.076 227.497L354.757 149.703C354.797 149.312 354.916 148.961 355.121 148.644C355.326 148.326 355.591 148.127 355.909 148.048L387.931 140.064C388.249 139.984 388.514 140.051 388.725 140.262C388.937 140.474 389.023 140.779 388.984 141.169L388.593 152.338C388.553 152.728 388.434 153.079 388.229 153.397L388.216 153.404Z" fill="black"/>
<path d="M414.994 212.045L408.884 182.076C408.732 181.811 408.566 181.698 408.374 181.745L405.296 182.513C404.912 182.605 404.733 182.844 404.76 183.214L403.727 214.621C403.687 215.011 403.548 215.369 403.31 215.693C403.071 216.018 402.793 216.223 402.469 216.302L391.599 219.01C391.274 219.089 391.016 219.023 390.804 218.811C390.592 218.599 390.506 218.295 390.546 217.904L393.227 140.11C393.267 139.72 393.386 139.369 393.591 139.051C393.797 138.733 394.061 138.535 394.379 138.455L413.227 133.755C417.841 132.603 421.654 133.464 424.66 136.323C427.666 139.19 429.374 143.573 429.784 149.478C429.91 151.272 429.943 152.675 429.883 153.675C429.738 158.124 428.904 162.268 427.374 166.108C425.852 169.948 423.806 173.138 421.244 175.681C421.118 175.787 421.032 175.906 420.979 176.031C420.92 176.157 420.933 176.29 421.006 176.422L428.414 208.232L428.433 208.457C428.46 208.835 428.367 209.179 428.162 209.497C427.957 209.814 427.692 210.013 427.368 210.092L416.213 212.873C415.57 213.032 415.16 212.754 414.981 212.039L414.994 212.045ZM405.958 149.948L405.283 169.63C405.177 170.04 405.322 170.192 405.706 170.093L409.844 169.06C412.022 168.518 413.77 166.942 415.094 164.327C416.411 161.719 416.941 158.581 416.689 154.913C416.517 152.444 415.882 150.61 414.783 149.398C413.684 148.187 412.307 147.79 410.638 148.207L406.408 149.259C406.084 149.339 405.938 149.564 405.964 149.941L405.958 149.948Z" fill="black"/>
<path d="M479.323 195.892L478.184 185.22C478.237 185.055 478.198 184.929 478.059 184.849C477.92 184.77 477.787 184.744 477.661 184.777L465.831 187.723C465.447 187.822 465.268 188.054 465.295 188.431L463.355 199.871C463.223 200.745 462.799 201.268 462.097 201.44L451.227 204.147C450.459 204.339 450.168 203.916 450.36 202.883L466.698 121.679C466.831 120.812 467.254 120.283 467.956 120.11L480.554 116.972C481.197 116.814 481.607 117.131 481.792 117.919L492.669 192.337L492.696 192.675C492.749 193.423 492.418 193.886 491.716 194.058L480.462 196.865C479.753 197.044 479.376 196.72 479.316 195.892H479.323ZM467.963 174.767L476.331 172.682C476.648 172.602 476.801 172.377 476.774 172L473.477 141.672C473.398 141.467 473.292 141.375 473.166 141.408C473.034 141.441 472.948 141.573 472.901 141.818L467.638 174.277C467.539 174.687 467.638 174.846 467.969 174.767H467.963Z" fill="black"/>
<path d="M530.087 105.023C530.299 105.235 530.385 105.539 530.345 105.93L529.954 117.098C529.915 117.489 529.795 117.84 529.59 118.158C529.385 118.475 529.12 118.674 528.802 118.753L517.071 121.68C516.939 121.713 516.833 121.799 516.747 121.931C516.661 122.07 516.621 122.209 516.628 122.361L514.397 187.041C514.357 187.431 514.238 187.782 514.033 188.1C513.828 188.418 513.563 188.616 513.245 188.696L502.282 191.43C501.964 191.509 501.699 191.443 501.487 191.231C501.276 191.02 501.19 190.715 501.229 190.324L503.46 125.645C503.56 125.241 503.421 125.082 503.037 125.182L491.882 127.962C491.173 128.141 490.796 127.777 490.73 126.883L491.12 115.715C491.16 115.324 491.279 114.973 491.484 114.655C491.69 114.338 491.954 114.139 492.272 114.06L529.299 104.831C529.617 104.752 529.882 104.818 530.093 105.03L530.087 105.023Z" fill="black"/>
<path d="M440.363 358.703C434.471 366.627 426.759 371.771 417.226 374.148C409.149 376.16 402.515 375.121 397.325 371.03C392.135 366.938 389.222 360.378 388.593 351.354C388.514 350.176 388.487 348.256 388.534 345.582L388.626 339.57C388.692 338.889 388.931 338.266 389.348 337.69C389.765 337.121 390.248 336.764 390.818 336.624L409.824 331.884C410.38 331.745 410.85 331.865 411.221 332.235C411.585 332.613 411.737 333.136 411.671 333.817L411.638 338.213C411.572 338.895 411.572 339.762 411.651 340.808C411.85 343.688 412.578 345.899 413.829 347.449C415.081 349.004 416.491 349.58 418.06 349.19C420.522 348.574 422.522 346.912 424.044 344.205C425.567 341.497 426.421 338.26 426.613 334.486L427.262 314.367C427.341 313.95 427.275 313.732 427.043 313.725C426.812 313.719 426.54 313.884 426.222 314.228C422.654 318.71 418.576 321.524 413.982 322.669C406.918 324.43 401.178 323.166 396.776 318.876C392.367 314.586 389.851 307.932 389.215 298.909L389.123 295.142C388.97 292.918 388.924 289.005 388.984 283.405C389.301 278.135 389.586 274.077 389.844 271.217C390.48 260.684 393.677 251.773 399.444 244.478C405.21 237.189 412.691 232.396 421.886 230.099C430.519 227.947 437.424 228.788 442.601 232.614C447.771 236.447 450.711 243.399 451.419 253.468C451.77 258.44 451.876 262.405 451.737 265.365L449.777 330.309C449.406 341.312 446.275 350.772 440.383 358.696L440.363 358.703ZM428.639 275.513C428.791 271.217 428.791 267.092 428.632 263.14C428.506 259.718 427.791 257.235 426.487 255.692C425.183 254.157 423.409 253.667 421.165 254.223C419.033 254.752 417.252 256.196 415.822 258.546C414.385 260.903 413.459 263.921 413.035 267.622C412.684 270.773 412.452 274.752 412.333 279.572C412.141 283.345 412.141 287.469 412.34 291.945C412.658 294.924 413.445 297.128 414.683 298.545C415.921 299.968 417.61 300.412 419.741 299.876C421.873 299.346 423.634 298.009 425.024 295.864C426.414 293.719 427.335 290.998 427.791 287.688C428.096 285.483 428.381 281.425 428.652 275.5L428.639 275.513Z" fill="#B62025"/>
<path d="M464.845 254.07C462.13 251.628 460.614 248.125 460.297 243.571C460.038 239.91 460.588 236.295 461.932 232.72C463.282 229.152 465.202 226.107 467.698 223.578C470.194 221.055 472.954 219.414 475.967 218.666C479.687 217.739 482.905 218.493 485.619 220.936C488.333 223.379 489.849 226.842 490.16 231.33C490.419 234.998 489.869 238.612 488.519 242.181C487.168 245.749 485.261 248.807 482.799 251.363C480.336 253.918 477.628 255.56 474.682 256.295C470.836 257.255 467.552 256.513 464.838 254.07H464.845ZM467.625 300.842C467.605 300.544 467.678 300.22 467.85 299.876L504.46 213.389C504.738 212.714 505.228 212.284 505.936 212.112L514.397 210C514.973 209.854 515.277 210.006 515.311 210.456C515.324 210.682 515.251 211.006 515.085 211.423L478.476 297.909C478.198 298.591 477.701 299.015 476.999 299.187L468.539 301.299C467.963 301.445 467.658 301.292 467.625 300.842ZM480.303 242.174C481.733 239.724 482.349 237.156 482.163 234.468C482.011 232.303 481.309 230.628 480.051 229.463C478.793 228.291 477.304 227.921 475.569 228.358C473.451 228.887 471.663 230.357 470.2 232.773C468.737 235.19 468.102 237.785 468.294 240.552C468.446 242.723 469.148 244.392 470.406 245.557C471.663 246.729 473.186 247.086 474.98 246.643C477.099 246.113 478.866 244.63 480.296 242.181L480.303 242.174ZM497.813 290.296C495.099 287.893 493.59 284.444 493.272 279.962C493.014 276.301 493.576 272.66 494.953 269.045C496.33 265.431 498.27 262.346 500.766 259.784C503.262 257.222 505.983 255.573 508.935 254.838C512.656 253.912 515.867 254.666 518.588 257.109C521.302 259.552 522.818 263.014 523.129 267.503C523.387 271.164 522.838 274.785 521.494 278.353C520.143 281.922 518.237 284.987 515.774 287.536C513.311 290.091 510.604 291.733 507.658 292.468C503.811 293.428 500.528 292.706 497.82 290.303L497.813 290.296ZM513.318 278.439C514.781 276.063 515.416 273.487 515.224 270.72C515.072 268.555 514.351 266.867 513.06 265.669C511.769 264.471 510.259 264.087 508.525 264.517C506.406 265.047 504.625 266.536 503.162 268.992C501.699 271.448 501.07 274.024 501.256 276.712C501.408 278.883 502.11 280.551 503.368 281.716C504.625 282.888 506.148 283.246 507.942 282.802C510.061 282.273 511.848 280.823 513.311 278.439H513.318Z" fill="#B62025"/>
</svg>
