<?xml version="1.0" encoding="UTF-8"?>
<svg id="Layer_1" data-name="Layer 1" xmlns="http://www.w3.org/2000/svg" version="1.1" viewBox="0 0 1200 933.7">
  <defs>
    <style>
      .cls-1 {
        fill: #fddd02;
        stroke-width: 0px;
      }
    </style>
  </defs>
  <path class="cls-1" d="M548.3,908.8c-168.9-.8-298.7-54.4-396.8-163.8-17.9-20-42.2-30-61.8-38-35.7-14.7-60.2-40.2-69.2-72.1-9.1-32.2-1.5-67,21.4-98.3,16-21.9,25.8-42.3,29.7-62.3C115.6,253.6,254.8,114.2,497,48.1c56.7-15.5,112.5-23.3,166.1-23.3,106.5,0,207.6,31,300.3,92.1,8,5.3,16.2,12.3,24.8,19.8l24.2,20.7c36.3,31.2,73.9,63.4,121.7,87.9,23.2,11.9,38.9,30.6,45.5,54.2,7.9,28.5,2.1,61.7-16.2,91.2-19.3,31.2-34.1,67.6-42.9,105.2-30.5,130.3-109.4,234-241,317-100.9,63.6-210.9,95.9-326.7,95.9h-4.6Z"/>
</svg>