<svg width="163" height="39" viewBox="0 0 163 39" fill="none" xmlns="http://www.w3.org/2000/svg">
<g clip-path="url(#clip0_2173_15412)">
<path d="M78.182 30.0156C79.9565 29.5926 79.1432 27.1648 77.4426 27.5879L67.4515 30.2271C65.7417 30.6961 66.5365 33.0135 68.2556 32.6456L78.182 30.0156Z" fill="white"/>
<path d="M78.182 34.0066C79.9565 33.5376 79.1432 31.1743 77.4426 31.6433L67.4515 34.2181C65.7417 34.6963 66.5365 37.0597 68.2556 36.5815L78.182 34.0066Z" fill="white"/>
<path d="M75.2059 36.9033C75.2059 36.5815 75.1505 36.37 75.095 36.2688L70.5847 37.4275C70.8712 38.3747 71.7862 39.0092 72.8676 39.0092C74.1338 39 75.2059 38.0068 75.2059 36.9033Z" fill="white"/>
<path d="M67.1742 12.4421C67.1742 12.4605 67.1836 12.4881 67.1836 12.4881C67.1836 12.4881 67.1649 12.4605 67.1742 12.4421Z" fill="white"/>
<path d="M70.3444 19.8174L68.8379 16.6172L69.7714 22.9164H71.4443V19.3116L70.3444 19.8174Z" fill="white"/>
<path d="M76.9249 14.3088L74.5774 17.0768L72.1189 15.0261L73.6531 18.2815L71.4626 19.3022H75.0857V22.9162H75.6587L76.9342 14.3088H76.9249Z" fill="white"/>
<path d="M71.7954 14.7504L72.1651 14.2998H68.4958L68.8286 16.5344L72.1004 15.0079L71.7954 14.7504Z" fill="white"/>
<path d="M83.7366 10.9891C83.9122 4.7359 78.9953 -0.0551913 72.5533 -1.56215e-05C65.9819 -0.0551913 61.1296 4.7267 61.2497 10.9891C61.4716 19.2379 66.9523 19.4494 66.9523 25.3532V26.0889C65.4736 26.613 66.2684 28.7649 67.9228 28.3511L77.8584 25.7762C79.1709 25.4084 79.06 24.0382 78.2651 23.56C79.2818 19.3023 83.6165 18.2999 83.7366 10.9891ZM62.8394 11.1179C62.8394 5.49916 66.786 1.65525 72.4978 1.65525C78.145 1.65525 82.1377 5.49916 82.1377 11.1179C82.1377 15.5319 80.0027 17.3435 78.3021 19.7069C78.5609 17.9597 78.9121 15.6791 79.365 12.7088L79.4112 12.5984C79.4851 12.4513 79.6515 12.1018 79.4297 11.7524C79.1986 11.3754 78.7365 11.3018 77.9047 11.2834C77.8954 11.2834 67.4699 11.2282 67.4699 11.2282C66.9154 11.2282 66.3146 11.2742 66.0189 11.6972C65.7601 12.0651 65.9079 12.4605 65.9726 12.626L65.9911 12.6628L67.322 20.7184C65.6307 17.7941 62.8394 16.1848 62.8394 11.1179ZM78.1727 12.5341L76.2872 24.7187C76.2687 24.7831 76.0654 24.9394 75.7881 24.9394C75.7789 24.9394 69.7158 24.9762 69.7158 24.9762C69.4293 24.9762 69.2167 24.8198 69.1983 24.7463C69.1983 24.7463 67.1649 12.4513 67.1649 12.4421C67.2389 12.4329 67.3128 12.4329 67.4514 12.4329C67.4514 12.4329 70.8064 12.4513 73.7086 12.4605L74.7252 12.4697C76.4906 12.4789 77.8862 12.4881 77.8862 12.4881C77.8862 12.4881 78.0248 12.5065 78.1727 12.5157V12.5341Z" fill="white"/>
<path d="M4.09441 18.8884C6.81169 18.8884 8.05942 20.5253 8.05942 23.2105V31.9743C8.05942 34.6319 6.81169 36.2688 4.09441 36.2688H0V18.8884H4.09441ZM4.06668 34.5031C5.46229 34.5031 6.13699 33.6387 6.13699 32.0478V23.1094C6.13699 21.5185 5.46229 20.654 4.03895 20.654H1.95016V34.5031H4.06668Z" fill="white"/>
<path d="M16.2667 18.8884C19.0117 18.8884 20.1578 20.277 20.1578 22.8611V24.2772C20.1578 26.19 19.4831 27.3763 17.9858 27.8545C19.5848 28.3235 20.1855 29.6201 20.1855 31.4777V34.1813C20.1855 34.9537 20.2133 35.671 20.5367 36.2688H18.5681C18.3463 35.7722 18.2446 35.3216 18.2446 34.1537V31.4225C18.2446 29.4638 17.3204 28.8384 15.7029 28.8384H14.3258V36.2596H12.3849V18.8884H16.2667ZM15.7676 27.082C17.3111 27.082 18.2354 26.5854 18.2354 24.7003V23.0358C18.2354 21.4725 17.6623 20.654 16.2113 20.654H14.3258V27.082H15.7676Z" fill="white"/>
<path d="M26.6552 18.8884V36.2688H24.7051V18.8884H26.6552Z" fill="white"/>
<path d="M32.8662 36.2688H31.1194V18.8884H33.5871L37.6261 31.4501V18.8884H39.3452V36.2688H37.3303L32.8662 22.2174V36.2688Z" fill="white"/>
<path d="M46.813 28.7189L45.7871 30.4293V36.2596H43.8462V18.8884H45.7871V27.2751L50.4268 18.8884H52.3955L47.9776 26.8061L52.5433 36.2596H50.5562L46.813 28.7189Z" fill="white"/>
<path d="M96.9256 23.0634V23.5324H95.0771V22.9623C95.0771 21.399 94.4764 20.4794 93.0808 20.4794C91.6851 20.4794 91.0844 21.399 91.0844 22.9347C91.0844 26.8338 96.9441 27.2016 96.9441 32.0938C96.9441 34.7239 95.6686 36.4343 93.0068 36.4343C90.3357 36.4343 89.088 34.7239 89.088 32.0938V31.1007H90.9088V32.195C90.9088 33.7583 91.5557 34.6779 92.9514 34.6779C94.347 34.6779 94.9939 33.7583 94.9939 32.195C94.9939 28.3235 89.1527 27.9465 89.1527 23.0634C89.1527 20.3874 90.4004 18.7229 93.0161 18.7229C95.6779 18.7137 96.9256 20.4334 96.9256 23.0634Z" fill="white"/>
<path d="M107.582 36.2413H105.715L102.822 22.4106V36.2597H101.122V18.8794H103.839L106.704 32.7561L109.477 18.8794H112.194V36.2597H110.346V22.2819L107.582 36.2413Z" fill="white"/>
<path d="M118.655 32.7651L117.98 36.2688H116.187L119.533 18.8884H122.352L125.697 36.2688H123.756L123.082 32.7651H118.655ZM118.904 31.1006H122.795L120.827 21.0679L118.904 31.1006Z" fill="white"/>
<path d="M133.609 18.8884C136.354 18.8884 137.5 20.277 137.5 22.8611V24.2772C137.5 26.19 136.825 27.3763 135.328 27.8545C136.927 28.3235 137.528 29.6201 137.528 31.4777V34.1813C137.528 34.9537 137.555 35.671 137.879 36.2688H135.91C135.688 35.7722 135.587 35.3216 135.587 34.1537V31.4225C135.587 29.4638 134.663 28.8384 133.045 28.8384H131.677V36.2596H129.736V18.8884H133.609ZM133.11 27.082C134.653 27.082 135.578 26.5854 135.578 24.7003V23.0358C135.578 21.4725 135.005 20.654 133.553 20.654H131.659V27.082H133.11Z" fill="white"/>
<path d="M144.589 36.2688V20.654H141.373V18.8884H149.755V20.654H146.539V36.2688H144.589Z" fill="white"/>
<path d="M163 22.9255C163 25.8774 160.874 28.0477 157.99 28.0477C155.107 28.0477 152.981 25.8774 152.981 22.9163C152.981 19.9644 155.107 17.7942 157.99 17.7942C160.883 17.8034 163 19.9736 163 22.9255ZM153.73 22.9255C153.73 25.4452 155.532 27.3304 157.99 27.3304C160.449 27.3304 162.251 25.4452 162.251 22.9255C162.251 20.4058 160.449 18.5207 157.99 18.5207C155.541 18.5299 153.73 20.4058 153.73 22.9255ZM158.064 19.8265C159.174 19.8265 159.654 20.3874 159.654 21.445V21.5921C159.654 22.3462 159.405 22.8336 158.813 23.0543C159.423 23.2566 159.654 23.7624 159.654 24.5072V25.1693C159.654 25.4912 159.673 25.7763 159.811 26.0246H158.979C158.887 25.8222 158.859 25.6475 158.859 25.1693V24.5072C158.859 23.698 158.462 23.4681 157.796 23.4681H157.26V26.0338H156.475V19.8357H158.064V19.8265ZM157.926 22.7232C158.527 22.7232 158.859 22.4933 158.859 21.7668V21.5369C158.859 20.9024 158.637 20.553 158.027 20.553H157.27V22.7232H157.926Z" fill="white"/>
</g>
<defs>
<clipPath id="clip0_2173_15412">
<rect width="163" height="39" fill="white"/>
</clipPath>
</defs>
</svg>
