<?xml version="1.0" encoding="UTF-8"?>
<svg id="Layer_2" data-name="Layer 2" xmlns="http://www.w3.org/2000/svg" version="1.1" viewBox="0 0 578.93 421.79">
  <defs>
    <style>
      .cls-1 {
        fill: #b62025;
      }

      .cls-1, .cls-2, .cls-3 {
        stroke-width: 0px;
      }

      .cls-2 {
        fill: #000;
      }

      .cls-3 {
        fill: #fff;
      }
    </style>
  </defs>
  <g id="Layer_1-2" data-name="Layer 1-2">
    <polygon class="cls-1" points="3.88 139.99 3.88 76.72 317.07 0 317.07 0 317.07 63.28 3.88 139.99"/>
    <path class="cls-3" d="M294.45,58.35v-16.43l8.86-30.44-6.42,1.59-5.26,21.89-.51.13-5.46-19.23-6.61,1.64,8.86,26.04v16.43l6.55-1.63h0ZM268.45,42.34l-4.04,1v-16.17l4.04-1c1.28-.32,2.22-.31,2.82,0,.6.33,1,1.01,1.19,2.04.19,1.03.29,2.68.29,4.93s-.1,4.01-.29,5.14-.58,2.01-1.16,2.62c-.58.62-1.53,1.09-2.86,1.42M280.13,61.9l-4.81-16.85c1.63-1.4,2.7-3.18,3.21-5.34s.77-4.91.77-8.24-.22-5.8-.67-7.66-1.38-3.15-2.79-3.88-3.53-.75-6.36-.04l-11.62,2.89v44.67l6.55-1.63v-16.62l4.49-1.12.45-.11,4.04,15.62,6.74-1.67v-.02h0ZM242.39,65.76c-1.58.39-2.66.38-3.24-.04s-.97-1.71-1.19-3.86c-.21-2.15-.32-6.07-.32-11.74s.11-9.64.32-11.9c.21-2.26.61-3.74,1.19-4.45s1.66-1.26,3.24-1.65c1.58-.39,2.67-.38,3.27.03.6.41,1.01,1.7,1.22,3.85.21,2.15.32,6.07.32,11.74s-.11,9.64-.32,11.9-.62,3.75-1.22,4.46-1.69,1.26-3.27,1.66M242.39,71.8c3.64-.9,6.24-2.18,7.8-3.82s2.55-3.99,2.95-7.03c.41-3.04.61-7.99.61-14.83s-.2-11.68-.61-14.52-1.39-4.7-2.95-5.56c-1.56-.87-4.16-.85-7.8.05-3.6.89-6.17,2.16-7.74,3.8-1.56,1.64-2.55,3.99-2.95,7.03-.41,3.05-.61,7.99-.61,14.83s.2,11.68.61,14.52c.41,2.84,1.39,4.7,2.95,5.56,1.56.87,4.14.85,7.74-.04M222.81,76.14v-38.57l7.25-1.8v-6.1l-21.06,5.23v6.1l7.25-1.8v38.57l6.55-1.63s.01,0,.01,0ZM206.63,80.16v-44.67l-6.23,1.55v26.75l-.32.08-9.18-24.47-6.29,1.56v44.67l6.23-1.55v-28.11l.26-.06,9.57,25.74,5.97-1.48h-.01ZM173.5,43.71v27.92c0,3.64-.08,6.19-.22,7.65-.15,1.47-.51,2.52-1.09,3.16-.58.64-1.59,1.14-3.05,1.5-1.41.35-2.41.35-2.99,0s-.94-1.23-1.09-2.62-.22-3.9-.22-7.54v-27.92l-6.55,1.63v25.13c0,5.89.19,10.07.58,12.55.39,2.48,1.33,4.12,2.82,4.91,1.5.8,3.98.76,7.45-.1s5.95-2.06,7.45-3.6,2.45-3.66,2.86-6.36.61-6.97.61-12.81v-25.13l-6.55,1.63h-.01ZM144.74,96.04c2.57-.64,4.6-1.54,6.1-2.72,1.5-1.17,2.6-2.85,3.31-5.04s1.06-5.12,1.06-8.8-.24-5.85-.71-7.03c-.47-1.4-1.15-2.31-2.02-2.74-.88-.43-2.02-.62-3.43-.58l-4.82.16c-.86.04-1.47-.06-1.83-.29s-.61-.71-.74-1.44c-.13-.72-.19-1.95-.19-3.69,0-1.34.06-2.43.19-3.26s.39-1.56.77-2.17c.34-.65.91-1.18,1.7-1.59.79-.41,1.94-.81,3.43-1.18,1.24-.31,2.46-.56,3.66-.75s2.05-.28,2.57-.28v-5.58c-.64,0-1.7.04-3.18.17-1.48.13-3.11.42-4.91.86-2.48.62-4.51,1.51-6.07,2.67-1.56,1.17-2.74,2.78-3.53,4.84s-1.19,4.75-1.19,8.09c0,3.64.29,6.3.87,8s1.72,2.51,3.43,2.43l5.46-.25c1.33-.03,2.25.08,2.76.32s.84.76.99,1.57.22,2.29.22,4.46c0,1.47-.08,2.67-.22,3.59-.15.93-.42,1.67-.8,2.24-.43.58-.99,1.05-1.7,1.4-.71.35-1.72.69-3.05,1.02-2.05.51-4.49.94-7.32,1.3v5.52c1.24,0,2.72-.12,4.43-.35,1.71-.23,3.3-.53,4.75-.89M122.79,100.98v-44.67l-9.89,2.45-5.84,35.86-.45.11-5.84-32.96-10.08,2.5v44.67l6.23-1.55v-35.39l.38-.1,6.03,33.89,6.68-1.66,6.03-36.88.38-.1v35.39l6.36-1.58v.02h.01ZM75.22,107.27c-1.58.39-2.66.38-3.24-.04s-.97-1.71-1.19-3.86c-.21-2.15-.32-6.07-.32-11.74s.11-9.64.32-11.9c.21-2.26.61-3.74,1.19-4.45.58-.71,1.66-1.26,3.24-1.65s2.67-.38,3.27.03c.6.41,1.01,1.7,1.22,3.85s.32,6.07.32,11.74-.11,9.64-.32,11.9c-.21,2.26-.62,3.75-1.22,4.46s-1.69,1.26-3.27,1.66M75.22,113.31c3.64-.9,6.24-2.18,7.8-3.82s2.55-3.99,2.95-7.03c.41-3.04.61-7.99.61-14.82s-.2-11.68-.61-14.52c-.41-2.84-1.39-4.7-2.95-5.56-1.56-.87-4.16-.85-7.8.05-3.6.89-6.17,2.16-7.74,3.8-1.56,1.64-2.55,3.99-2.95,7.03-.41,3.05-.61,7.99-.61,14.83s.2,11.68.61,14.52c.41,2.84,1.39,4.7,2.95,5.56,1.56.87,4.14.85,7.74-.04M49.86,96.62l-4.04,1v-16.17l4.04-1c1.28-.32,2.22-.31,2.82.01.6.33.99,1.01,1.19,2.04.19,1.03.29,2.68.29,4.93s-.1,4.01-.29,5.14-.58,2.01-1.16,2.62c-.58.62-1.53,1.09-2.86,1.42M61.54,116.19l-4.81-16.85c1.63-1.4,2.7-3.18,3.21-5.34.51-2.16.77-4.91.77-8.24s-.23-5.8-.67-7.66c-.45-1.86-1.38-3.15-2.79-3.88-1.41-.73-3.53-.75-6.36-.04l-11.62,2.89v44.67l6.55-1.63v-16.62l4.49-1.12.45-.11,4.04,15.62,6.74-1.67v-.02h0ZM26.36,124.92v-18.63l8.8-2.18v-6.04l-8.8,2.18v-13.96l9.95-2.47v-6.04l-16.56,4.11v44.67l6.61-1.64Z"/>
    <g>
      <polygon class="cls-2" points="371.24 171.1 341.97 178.35 341.97 144.33 367.59 137.98 367.59 119.09 341.97 125.43 341.97 92.64 371.24 85.39 371.24 66.49 321.56 78.8 321.56 202.3 371.24 189.99 371.24 171.1"/>
      <polygon class="cls-2" points="499.47 34.72 479.23 39.74 479.23 163.24 499.47 158.22 499.47 34.72"/>
      <path class="cls-2" d="M272.81,169.37l11.3-2.8,10.98,42.29,20.72-5.13-13.2-46.12c4.26-3.87,7.13-8.77,8.51-14.59,1.41-5.92,2.12-13.52,2.12-22.6s-.63-15.92-1.86-21.02c-1.3-5.37-4.07-9.18-8.21-11.32-4.15-2.14-10.07-2.21-18.11-.22l-32.47,8.05v123.5l20.24-5.01v-45.01l-.02-.02h0ZM293,125c0,6.12-.26,10.72-.77,13.7-.48,2.8-1.43,4.98-2.82,6.47s-3.8,2.67-7.15,3.5l-9.45,2.34v-41.24l10.04-2.49c3.11-.77,5.46-.8,6.78-.08,1.28.7,2.15,2.27,2.6,4.67.51,2.71.76,7.13.76,13.12h0Z"/>
      <polygon class="cls-2" points="397.9 94.41 413.1 179.62 433.29 174.62 448.39 82.51 448.39 170.88 468.11 165.99 468.11 42.49 438.96 49.72 423.53 144.22 408.1 57.36 378.53 64.69 378.53 188.19 397.9 183.39 397.9 94.41"/>
      <path class="cls-2" d="M207.31,189.12l12.13-3.01c7.87-1.95,13.91-5.17,17.95-9.58,4.03-4.39,6.68-9.66,7.88-15.65,1.17-5.86,1.77-13.36,1.77-22.3s-.63-16.7-1.86-21.98c-1.3-5.53-4.05-9.51-8.18-11.84-4.1-2.3-10.21-2.48-18.15-.51l-31.77,7.87v123.5l20.24-5.01v-41.49h-.01ZM226.79,142.98c0,6.59-.26,11.56-.77,14.77-.48,3.04-1.44,5.37-2.83,6.91s-3.79,2.74-7.13,3.57l-8.75,2.17v-44.4l9.34-2.31c4.05-1,5.94-.58,6.81-.04,1.25.76,2.11,2.47,2.56,5.06.51,2.89.77,7.69.77,14.27h0Z"/>
      <polygon class="cls-2" points="553.72 82.44 575.35 15.92 554.4 21.11 539.78 69.67 525.33 28.32 504.25 33.54 525.67 89.34 503.69 157.17 524.65 151.98 539.53 101.53 554.4 144.61 575.49 139.39 553.72 82.44"/>
      <path class="cls-2" d="M80.75,209.63c1.42.89,3.25,1.34,5.55,1.34,2.02,0,4.39-.34,7.13-1.02,5.71-1.41,9.86-3.55,12.35-6.36,2.49-2.8,4.08-6.76,4.72-11.75.61-4.79.92-12.66.92-23.39s-.29-18.53-.87-23.01c-.62-4.8-2.28-8.08-4.93-9.75-2.66-1.67-6.84-1.77-12.79-.3-5.71,1.41-9.86,3.55-12.36,6.36-2.49,2.8-4.08,6.76-4.72,11.75-.61,4.79-.92,12.66-.92,23.39s.31,18.45.93,22.95c.66,4.82,2.34,8.11,4.98,9.78h.01ZM97.08,171.4c0,8.47-.1,14.4-.3,17.63-.25,3.97-.78,5.32-1.07,5.76-.47.71-1.43,1.25-2.87,1.6-1.44.36-2.2.23-2.43,0-.07-.07-.65-.78-.92-4.85-.2-3.06-.3-8.97-.3-17.58s.1-14.57.3-17.73c.25-3.89.78-5.22,1.07-5.66.46-.71,1.43-1.25,2.87-1.6.65-.16,1.16-.22,1.55-.22.47,0,.75.1.88.22.07.07.66.79.92,4.95.2,3.13.3,9.01.3,17.48h0Z"/>
      <polygon class="cls-2" points="132.02 249.27 152.25 244.25 152.25 120.75 136.86 124.57 117.56 140.82 117.56 160.83 132.02 150.57 132.02 249.27"/>
      <polygon class="cls-2" points="46.33 216.15 22.54 152.89 3.47 157.62 3.47 281.12 22.83 276.32 22.83 204.03 47.49 270.21 65.69 265.7 65.69 142.2 46.33 147 46.33 216.15"/>
      <polygon class="cls-2" points="112.56 213.66 75.38 222.89 75.38 232.7 112.56 223.47 112.56 213.66"/>
    </g>
    <g>
      <polygon class="cls-2" points="441.39 207.03 441.86 200.13 436.22 205.46 434.33 202.59 440.45 198.1 434.33 196.59 436.22 192.79 441.86 195.32 441.39 188.59 445.15 187.66 444.62 194.63 450.27 189.3 452.15 192.17 446.03 196.66 452.15 198.17 450.27 201.91 444.62 199.44 445.15 206.09 441.39 207.03"/>
      <polygon class="cls-2" points="77.82 349.04 54.04 285.81 34.97 290.54 34.97 413.98 54.33 409.19 54.33 336.92 78.98 403.08 97.18 398.57 97.18 275.12 77.82 279.92 77.82 349.04"/>
      <polygon class="cls-2" points="3.44 421.79 23.67 416.78 23.67 293.33 3.44 298.35 3.44 421.79"/>
      <polygon class="cls-2" points="408.43 267.15 384.65 203.92 365.58 208.64 365.58 332.09 384.94 327.29 384.94 255.03 409.59 321.18 427.79 316.68 427.79 193.23 408.43 198.03 408.43 267.15"/>
      <path class="cls-2" d="M297.5,266.8c0-9.3-.63-16.7-1.86-21.97-1.3-5.53-4.05-9.51-8.17-11.83-4.16-2.34-10.09-2.5-18.15-.51l-31.77,7.87v123.45l20.23-5.01v-41.47l12.13-3c7.87-1.95,13.9-5.17,17.94-9.58,4.02-4.39,6.68-9.65,7.88-15.65,1.17-5.85,1.77-13.35,1.77-22.29h0ZM277.26,271.2c0,6.58-.26,11.55-.77,14.76-.48,3.04-1.44,5.36-2.83,6.91-1.39,1.54-3.79,2.74-7.13,3.57l-8.75,2.17v-44.38l9.34-2.31c4.05-1,5.94-.58,6.81-.04,1.25.76,2.11,2.47,2.56,5.06.51,2.89.77,7.69.77,14.27h0Z"/>
      <path class="cls-2" d="M183.53,253.74l-22.05,128.91,20.39-5.05,4.88-30.2,21.28-5.27,5.05,27.75,20.34-5.04-22.05-117.98-27.83,6.89h-.01ZM205.67,324.17l-16.59,4.11,8.3-52.59,8.3,48.48h0Z"/>
      <path class="cls-2" d="M137.91,345.78c0,8.68-.23,14.74-.68,18.02-.42,2.98-1.37,5.06-2.83,6.16-1.61,1.21-4.69,2.45-9.16,3.66l-.91.25v18l1.54-.4c10.93-2.83,18.24-5.61,22.35-8.52,4.2-2.97,6.95-7.93,8.17-14.72,1.17-6.55,1.76-18.41,1.76-35.27v-72.93l-20.23,5.01v80.75h-.01Z"/>
      <path class="cls-2" d="M339.39,215.13l-27.83,6.89-22.05,128.91,20.39-5.05,4.88-30.2,21.28-5.27,5.05,27.75,20.34-5.04-21.81-116.7-.24-1.29h-.01ZM333.7,292.45l-16.59,4.11,8.3-52.59,8.3,48.48h0Z"/>
    </g>
  </g>
</svg>