<?xml version="1.0" encoding="UTF-8"?>
<svg id="Layer_1" data-name="Layer 1" xmlns="http://www.w3.org/2000/svg" version="1.1" viewBox="0 0 415.84 153.73">
  <defs>
    <style>
      .cls-1 {
        fill: #000;
        stroke-width: 0px;
      }
    </style>
  </defs>
  <g>
    <path class="cls-1" d="M237.31,67.17l1.13-24.27c.05-.26-.04-.39-.26-.39-.29,0-.46.16-.52.48l-7.6,23.98c-.15.45-.41.8-.79,1.06-.37.26-.77.39-1.21.39h-16.73c-.43,0-.76-.13-.96-.39-.21-.26-.24-.61-.08-1.06L230.57,2.45c.15-.45.41-.8.78-1.06.37-.26.77-.39,1.21-.39h23.8c5.79,0,10.09,1.64,12.88,4.91,2.79,3.27,3.71,7.61,2.76,13-.27,1.54-.55,2.73-.85,3.56-1.13,3.53-2.81,6.69-5.04,9.49-2.23,2.79-4.88,5.06-7.93,6.79-.4.19-.55.42-.45.68l-.15,27.35-.07.39c-.07.39-.27.69-.6.91-.33.23-.71.34-1.15.34h-17.17c-.87,0-1.3-.42-1.3-1.25ZM246.46,16.51c-.36,0-.57.16-.63.48l-3.62,11.27c-.06.32.09.48.46.48h1.41c1.74,0,3.32-.68,4.76-2.02,1.43-1.35,2.36-3.21,2.78-5.59.26-1.48.06-2.62-.59-3.42-.66-.8-1.67-1.2-3.05-1.2h-1.52Z"/>
    <path class="cls-1" d="M321.72,16.13c-.37.26-.81.39-1.32.39h-20.21c-.36,0-.57.16-.63.48l-2.97,9.44c-.2.32-.08.48.35.48h10.54c.51,0,.86.13,1.07.39.21.26.24.61.08,1.06l-3.96,12.62c-.39.96-1.09,1.45-2.1,1.45h-10.54c-.36,0-.57.16-.63.48l-2.98,9.54c-.2.32-.08.48.35.48h20.21c.51,0,.86.13,1.07.39.21.26.24.61.08,1.06l-3.96,12.62c-.15.45-.41.8-.78,1.06-.37.26-.81.39-1.32.39h-39.01c-.43,0-.76-.13-.96-.39-.21-.26-.24-.61-.08-1.06L284.3,2.45c.15-.45.41-.8.78-1.06.37-.26.77-.39,1.21-.39h39.01c.51,0,.86.13,1.07.39.21.26.23.61.08,1.06l-3.96,12.62c-.15.45-.41.8-.78,1.06Z"/>
    <path class="cls-1" d="M342.65,67.08l1.07-7.32c.09-.13.08-.24-.05-.34-.13-.1-.26-.14-.41-.14h-9.45c-.36,0-.64.16-.85.48l-3.35,7.32c-.38.9-1.07,1.35-2.09,1.35h-16.52c-1.09,0-1.39-.51-.92-1.54L345.39,2.26c.44-.83,1.16-1.25,2.18-1.25h19.23c1.01,0,1.48.42,1.41,1.25l-5.42,64.63-.03.19c-.16.9-.78,1.35-1.87,1.35h-17.06c-1.02,0-1.41-.45-1.17-1.35ZM340.28,45.4h5.11c.22,0,.42-.16.63-.48l2.71-17.82c.05-.26-.03-.37-.21-.34s-.3.14-.33.34l-8.14,17.82c-.2.32-.12.48.24.48Z"/>
    <path class="cls-1" d="M367.84,68.04c-.21-.26-.24-.61-.08-1.06L388.04,2.45c.15-.45.41-.8.78-1.06.37-.26.77-.39,1.21-.39h16.73c.43,0,.75.13.97.39.21.26.23.61.08,1.06l-15.66,49.99c-.2.32-.08.48.35.48h20.65c.51,0,.86.13,1.07.39.21.26.23.61.08,1.06l-3.96,12.62c-.39.96-1.09,1.45-2.1,1.45h-39.45c-.43,0-.76-.13-.96-.39Z"/>
  </g>
  <g>
    <path class="cls-1" d="M38.02,91.22c-.23.25-.5.37-.82.37h-19.97c-.32,0-.48.18-.48.53v16.68c0,.35.16.53.48.53h11.42c.32,0,.59.12.82.37.22.25.34.55.34.9v10.24c0,.35-.11.65-.34.9-.23.25-.5.37-.82.37h-11.42c-.32,0-.48.18-.48.53v28.83c0,.35-.11.65-.34.9-.22.25-.5.37-.82.37H4.38c-.32,0-.59-.12-.82-.37-.23-.25-.34-.54-.34-.9v-71.38c0-.35.11-.65.34-.9.22-.25.5-.37.82-.37h32.83c.32,0,.59.12.82.37.22.25.34.55.34.9v10.24c0,.35-.11.65-.34.9Z"/>
    <path class="cls-1" d="M67.44,151.67l-7.39-29.15c-.13-.28-.29-.42-.48-.42h-3.26c-.32,0-.48.18-.48.53v28.83c0,.35-.11.65-.34.9-.22.25-.5.37-.82.37h-11.23c-.32,0-.59-.12-.82-.37-.23-.25-.34-.54-.34-.9v-71.38c0-.35.11-.65.34-.9.22-.25.5-.37.82-.37h19.39c3.52,0,6.66.93,9.41,2.8,2.75,1.87,4.88,4.49,6.38,7.87,1.5,3.38,2.26,7.25,2.26,11.62s-.72,7.81-2.16,10.98c-1.44,3.17-3.44,5.63-6,7.39-.13.07-.22.16-.29.26-.06.11-.06.23,0,.37l8.83,31.15.1.42c0,.7-.35,1.06-1.06,1.06h-11.52c-.71,0-1.15-.35-1.34-1.06ZM55.82,92.11v18.06c0,.35.16.53.48.53h4.32c1.98,0,3.6-.86,4.85-2.59,1.25-1.72,1.87-4.03,1.87-6.92s-.62-5.3-1.87-7.02c-1.25-1.72-2.87-2.59-4.85-2.59h-4.32c-.32,0-.48.18-.48.53Z"/>
    <path class="cls-1" d="M90.46,147.61c-3.49-3.98-5.23-9.27-5.23-15.89v-51.64c0-.35.11-.65.34-.9.22-.25.5-.37.82-.37h11.23c.32,0,.59.12.82.37.22.25.34.55.34.9v53.12c0,2.25.51,4.08,1.54,5.49,1.02,1.41,2.37,2.11,4.03,2.11s2.99-.7,3.98-2.11c.99-1.41,1.49-3.24,1.49-5.49v-53.12c0-.35.11-.65.34-.9.22-.25.49-.37.82-.37h11.23c.32,0,.59.12.82.37.22.25.34.55.34.9v51.64c0,6.62-1.74,11.92-5.23,15.89-3.49,3.98-8.08,5.97-13.78,5.97s-10.38-1.99-13.87-5.97Z"/>
    <path class="cls-1" d="M129.34,152.36c-.23-.25-.34-.54-.34-.9v-71.38c0-.35.11-.65.34-.9.22-.25.5-.37.82-.37h11.23c.32,0,.59.12.82.37.22.25.34.55.34.9v71.38c0,.35-.11.65-.34.9-.22.25-.5.37-.82.37h-11.23c-.32,0-.59-.12-.82-.37Z"/>
    <path class="cls-1" d="M187,79.18c.22.25.34.55.34.9v10.24c0,.35-.11.65-.34.9-.22.25-.5.37-.82.37h-12c-.32,0-.48.18-.48.53v59.35c0,.35-.11.65-.34.9-.22.25-.5.37-.82.37h-11.23c-.32,0-.59-.12-.82-.37-.23-.25-.34-.54-.34-.9v-59.35c0-.35-.16-.53-.48-.53h-11.52c-.32,0-.59-.12-.82-.37-.23-.25-.34-.54-.34-.9v-10.24c0-.35.11-.65.34-.9.22-.25.49-.37.82-.37h38.02c.32,0,.59.12.82.37Z"/>
    <path class="cls-1" d="M250.17,79.18c.22.25.34.55.34.9v10.24c0,.35-.11.65-.34.9-.22.25-.5.37-.82.37h-12c-.32,0-.48.18-.48.53v59.35c0,.35-.11.65-.34.9-.22.25-.5.37-.82.37h-11.23c-.32,0-.59-.12-.82-.37-.23-.25-.34-.54-.34-.9v-59.35c0-.35-.16-.53-.48-.53h-11.52c-.32,0-.59-.12-.82-.37-.22-.25-.34-.54-.34-.9v-10.24c0-.35.11-.65.34-.9.22-.25.5-.37.82-.37h38.02c.32,0,.59.12.82.37Z"/>
    <path class="cls-1" d="M277.12,151.57l-1.54-10.14c0-.35-.19-.53-.58-.53h-12.19c-.38,0-.58.18-.58.53l-1.54,10.14c-.06.78-.48,1.16-1.25,1.16h-11.23c-.83,0-1.15-.46-.96-1.37l14.11-71.39c.13-.77.54-1.16,1.25-1.16h12.96c.7,0,1.12.39,1.25,1.16l14.02,71.39.1.42c0,.63-.35.95-1.06.95h-11.52c-.77,0-1.19-.39-1.25-1.16ZM264.54,129.39h8.64c.32,0,.45-.17.38-.53l-4.51-28.83c-.06-.21-.16-.32-.29-.32s-.22.11-.29.32l-4.32,28.83c0,.35.13.53.38.53Z"/>
    <path class="cls-1" d="M301.81,151.14c-2.82-1.62-4.99-3.89-6.53-6.81-1.54-2.92-2.3-6.28-2.3-10.08v-3.06c0-.35.11-.65.34-.9.22-.25.5-.37.82-.37h11.04c.32,0,.59.12.82.37.22.25.34.55.34.9v2.32c0,2.18.51,3.94,1.54,5.28,1.02,1.34,2.3,2.01,3.84,2.01s2.82-.63,3.84-1.9c1.02-1.27,1.54-2.92,1.54-4.96s-.64-3.92-1.92-5.44c-1.28-1.51-3.78-3.75-7.49-6.71-3.2-2.54-5.79-4.79-7.78-6.76-1.98-1.97-3.68-4.4-5.09-7.29-1.41-2.89-2.11-6.23-2.11-10.03,0-5.98,1.7-10.77,5.09-14.36,3.39-3.59,7.87-5.39,13.44-5.39s10.16,1.87,13.58,5.6c3.42,3.73,5.14,8.62,5.14,14.68v2.53c0,.35-.11.65-.34.9-.22.25-.5.37-.82.37h-11.04c-.32,0-.59-.12-.82-.37-.22-.25-.34-.54-.34-.9v-2.85c0-2.18-.5-3.92-1.49-5.23-.99-1.3-2.29-1.95-3.89-1.95s-2.78.62-3.74,1.85c-.96,1.23-1.44,2.94-1.44,5.12s.61,3.98,1.82,5.6c1.21,1.62,3.62,3.87,7.2,6.76,3.97,3.24,6.96,5.86,8.98,7.87,2.02,2.01,3.58,4.22,4.7,6.65,1.12,2.43,1.68,5.33,1.68,8.71,0,6.2-1.73,11.12-5.18,14.78-3.46,3.66-8,5.49-13.63,5.49-3.71,0-6.98-.81-9.79-2.43Z"/>
    <path class="cls-1" d="M373.39,79.18c.22.25.34.55.34.9v10.24c0,.35-.11.65-.34.9-.22.25-.5.37-.82.37h-12c-.32,0-.48.18-.48.53v59.35c0,.35-.11.65-.34.9-.23.25-.5.37-.82.37h-11.23c-.32,0-.59-.12-.82-.37-.22-.25-.34-.54-.34-.9v-59.35c0-.35-.16-.53-.48-.53h-11.52c-.32,0-.59-.12-.82-.37-.22-.25-.34-.54-.34-.9v-10.24c0-.35.11-.65.34-.9.22-.25.5-.37.82-.37h38.02c.32,0,.59.12.82.37Z"/>
    <path class="cls-1" d="M413.12,91.22c-.23.25-.5.37-.82.37h-20.06c-.32,0-.48.18-.48.53v16.68c0,.35.16.53.48.53h11.52c.32,0,.59.12.82.37.22.25.34.55.34.9v10.24c0,.35-.11.65-.34.9-.23.25-.5.37-.82.37h-11.52c-.32,0-.48.18-.48.53v16.79c0,.35.16.53.48.53h20.06c.32,0,.59.12.82.37.22.25.34.55.34.9v10.24c0,.35-.11.65-.34.9-.23.25-.5.37-.82.37h-32.93c-.32,0-.59-.12-.82-.37-.22-.25-.34-.54-.34-.9v-71.38c0-.35.11-.65.34-.9.22-.25.5-.37.82-.37h32.93c.32,0,.59.12.82.37.22.25.34.55.34.9v10.24c0,.35-.11.65-.34.9Z"/>
  </g>
</svg>