<svg enable-background="new 0 0 287.8 222.7" viewBox="0 0 287.8 222.7" xmlns="http://www.w3.org/2000/svg"><path d="m130.8 222.7c-8.3 0-16.7-.8-24.8-2-7.5-1.2-15-3.1-22.1-5.6-4.6-1.6-9.3-3.6-13.6-5.6-6.7-3.2-12.9-7-18.7-11.3-3.7-2.8-7.5-6-10.8-9.3-4.9-4.2-7.5-10-13.8-12.6-25.5-5.8-36-37-18.1-56.2 2.4-2.7 3.9-5.8 4.2-9 7.3-55.1 57.1-96.9 112.5-107.8 5.3-1 11-1.9 16.3-2.5 13.1-1.4 26.6-.8 39.5 1.2 7.5 1.2 15 3.1 22 5.6 4.8 1.7 9.5 3.6 13.8 5.7 6.5 3.1 12.8 6.9 18.5 11.1 3.7 2.9 7.5 6.1 10.9 9.3 5 4.3 7.8 10.5 14.5 12.7 13.3 3.9 22.3 12.6 25.6 23.8 2.3 8.6 1.4 17.7-3 25.6-2.8 5.4-8.9 9.7-9.3 16.1-6.8 59.6-69.9 105.5-128.7 110-5.1.5-10 .8-14.9.8m-17.9-26.1c3.2.5 6.8.8 10.1 1 3.2.2 6.6.4 9.9.2 3.5-.1 6.8-.3 10.2-.7 4.6-.5 9.4-1.2 13.8-2.1 42.6-7.7 87.8-43 92.6-86.2.9-9.5 6.1-17.6 12.2-25 1-1.5 1.6-4.6.7-7.3-1.6-3.9-5.2-5.3-6.8-5.7l-2.8-.9c-10.8-3.5-16.8-11-23.8-18.5-3.3-3-4.8-4.3-6.4-5.6-6.4-4.8-11.3-7.8-16.5-10.3-3.5-1.7-7.3-3.2-10.9-4.5-5.8-2-11.9-3.6-18-4.6-10.8-1.7-21.9-2.2-32.9-1-4.5.5-9.2 1.2-13.7 2.1-44.7 9.1-86.6 42.1-92.6 86.5.5 12.9-14.1 21.7-12.8 31.4 2.4 4.4 3.5 5 6.8 6.2 11.4 2.9 18.9 11.2 26.3 19.4 3.3 3 4.8 4.3 6.4 5.6 6.3 4.8 11.3 7.8 16.5 10.3 3.5 1.6 7.2 3.2 10.9 4.5 6.7 2.6 13.7 4.2 20.8 5.2" fill="#fff"/><path d="m276.8 71.3-.3-.6c-2.9-7-8.7-12.1-16.3-14.4l-2.5-.9-.2-.1c-5.8-1.9-9.7-6.1-15.1-12-.7-.8-1.4-1.5-2.1-2.3l-.1-.1-.6-.6-.1-.1c-3.4-3.1-5.2-4.7-7.3-6.4l-.2-.2c-6.9-5.2-12.6-8.7-19.1-11.9-3.4-1.6-7.3-3.2-12.3-5.1l-.2-.1c-6.7-2.3-13.7-4.1-20.7-5.2-7.7-1.2-15.5-1.9-23-1.9-4.7 0-9.4.2-14 .7-4.8.5-10 1.3-15.1 2.3-25.2 5.1-49.4 17-68 33.5-20.7 18.6-33.5 41.4-36.8 66.1l-.2 1.3.1 1.4c.1 1.6-2.5 5.4-4.4 8.2-4.1 6-9.7 14.1-8.2 24.7l.4 2.8 1.3 2.5c4 7.4 7.9 10.8 15.2 13.4l.2.1 1 .3h.2c7 1.8 12.6 8.1 18.5 14.7l.5.6.5.5c3.6 3.3 5.4 4.9 7.3 6.4l.2.2c6.9 5.2 12.6 8.8 19.2 12 3.9 1.9 8.1 3.6 12.3 5.1 7.5 2.7 15.6 4.6 23.9 5.7 3.6.5 7.3.8 11 1.1h.3c2.4.1 5.2.3 8.2.3 1.1 0 2.1 0 3.1-.1 3.6-.1 7.3-.3 11.3-.7 4.9-.5 10-1.3 15-2.3 24-4.3 48.7-16.5 67.8-33.4 21.3-18.8 34.6-42.4 37.3-66.3v-.2c.4-4.7 3.1-9.8 8.8-16.6l.6-.7.5-.8c2.8-4.6 5.1-12.7 2.1-20.9z" fill="#ffec00"/></svg>