<svg width="18" height="20" viewBox="0 0 18 20" fill="none" xmlns="http://www.w3.org/2000/svg">
<path d="M14.7656 4.00882C13.6934 3.30647 12.9198 2.18234 12.6783 0.872466C12.6263 0.589578 12.5971 0.298106 12.5971 0H9.17515L9.16971 13.78C9.11224 15.3232 7.84821 16.5616 6.29876 16.5616C5.81723 16.5616 5.36366 16.4407 4.96445 16.2296C4.04876 15.7454 3.42199 14.7812 3.42199 13.6715C3.42199 12.0776 4.71281 10.781 6.29838 10.781C6.59467 10.781 6.87854 10.8301 7.14727 10.9144V7.40426C6.86923 7.36602 6.58652 7.34261 6.29838 7.34261C2.82551 7.34261 0 10.1812 0 13.6715C0 15.8125 1.06442 17.7072 2.68921 18.8532C3.71208 19.5751 4.95668 20 6.29876 20C9.77201 20 12.5975 17.161 12.5975 13.6715L12.5971 6.68357C13.9392 7.65164 15.5842 8.22171 17.3585 8.22171V4.78335C16.4028 4.78335 15.5127 4.49812 14.7656 4.00882Z" fill="white"/>
</svg>
